<?xml version="1.0" encoding="UTF-8" standalone="no"?>
<!-- Created with Inkscape (http://www.inkscape.org/) -->

<svg
   xmlns:dc="http://purl.org/dc/elements/1.1/"
   xmlns:cc="http://creativecommons.org/ns#"
   xmlns:rdf="http://www.w3.org/1999/02/22-rdf-syntax-ns#"
   xmlns:svg="http://www.w3.org/2000/svg"
   xmlns="http://www.w3.org/2000/svg"
   xmlns:sodipodi="http://sodipodi.sourceforge.net/DTD/sodipodi-0.dtd"
   xmlns:inkscape="http://www.inkscape.org/namespaces/inkscape"
   width="24.281122mm"
   height="56.444447mm"
   viewBox="0 0 86.035472 200.00001"
   id="svg2"
   version="1.1"
   inkscape:version="0.91 r13725"
   sodipodi:docname="mand.svg"
   inkscape:export-filename="C:\Users\nl\Documents\Source\kimbrerfesten\themes\hugo-kimbrer\static\img\mand.png"
   inkscape:export-xdpi="300"
   inkscape:export-ydpi="300">
  <defs
     id="defs4" />
  <sodipodi:namedview
     id="base"
     pagecolor="#ffffff"
     bordercolor="#666666"
     borderopacity="1.0"
     inkscape:pageopacity="0.0"
     inkscape:pageshadow="2"
     inkscape:zoom="0.98994949"
     inkscape:cx="52.809946"
     inkscape:cy="263.64841"
     inkscape:document-units="px"
     inkscape:current-layer="layer1"
     showgrid="false"
     inkscape:window-width="1920"
     inkscape:window-height="1018"
     inkscape:window-x="-8"
     inkscape:window-y="-8"
     inkscape:window-maximized="1"
     fit-margin-top="0"
     fit-margin-left="0"
     fit-margin-right="0"
     fit-margin-bottom="0"
     units="px" />
  <metadata
     id="metadata7">
    <rdf:RDF>
      <cc:Work
         rdf:about="">
        <dc:format>image/svg+xml</dc:format>
        <dc:type
           rdf:resource="http://purl.org/dc/dcmitype/StillImage" />
        <dc:title></dc:title>
      </cc:Work>
    </rdf:RDF>
  </metadata>
  <g
     inkscape:label="Layer 1"
     inkscape:groupmode="layer"
     id="layer1"
     transform="translate(-264.61993,-612.78401)">
    <g
       transform="matrix(0.39719418,0,0,-0.39719418,264.61993,812.78398)"
       inkscape:label="ink_ext_XXXXXX"
       id="g4144">
      <g
         transform="scale(0.1,0.1)"
         id="g4146">
        <path
           inkscape:connector-curvature="0"
           id="path4148"
           style="fill:#231f20;fill-opacity:1;fill-rule:nonzero;stroke:none"
           d="m 1108.81,4975 c 0,-70 -50,-105 -60,-160 90,5 200,-20 250,-95 45,10 55,55 70,95 25,35 35,75 80,95 15,5 20,-15 25,-25 -5,-35 -35,-60 -30,-105 -10,-10 -10,-40 -20,-50 -5,-70 -45,-105 -100,-140 5,-25 -5,-50 -30,-45 55,-15 20,-75 30,-130 l -20,-45 c -65,45 -125,-5 -180,-30 -30,15 -60,40 -65,75 25,35 80,45 95,85 -35,-5 -55,15 -70,30 -5,20 10,25 25,30 l 105,0 c -10,25 -65,25 -45,60 l 0,10 c -45,15 -75,-25 -115,-35 l -10,-10 c 25,-10 5,-30 0,-50 -10,-15 -25,5 -35,5 0,15 -19.997,20 -34.997,10 l -10,-20 c 5,-5 30,20 39.997,-5 0,-10 5,-30 -4.997,-35 4.997,-30 -10,-55 -15,-85 10,-5 10,-25 19.997,-35 0,-5 -9.997,-20 -24.997,-25 -20,5 -50,25 -55,40 5,25 -20,40 0,60 0,-5 -10,10 -10,20 -20,0 -30,-10 -35,-25 -5,-30 -15,-50 -35,-60 -5,-15 -20,-35 -45,-20 0,35 70,45 70,95 15,5 5,25 10,35 10,30 60,40 50,75 0,10 10,15 20,20 15,-15 35,5 50,15 14.997,10 9.997,35 19.997,45 -15,0 -39.997,-15 -59.997,-15 l 25,30 c -10,15 -25,20 -45,15 -20,-20 -35,-30 -30,-65 10,-10 15,5 25,-5 -5,-25 -35,-35 -45,-55 -15,15 -5,50 -10,75 15,10 0,45 15,50 45,25 0,120 40,150 20,55 65,85 99.997,135 l 45,75 c 35,5 25,-50 30,-60" />
        <path
           inkscape:connector-curvature="0"
           id="path4150"
           style="fill:#ffffff;fill-opacity:1;fill-rule:nonzero;stroke:none"
           d="m 1148.81,4770 c -5,-50 40,-55 50,-100 -35,-30 -45,40 -75,0 -10,-25 -35,-35 -65,-35 l -25,15 c 30,25 65,30 105,35 l 0,10 c -35,15 -70,0 -100,-5 10,40 -39.997,120 45,105 25,-5 50,-5 65,-25" />
        <path
           inkscape:connector-curvature="0"
           id="path4152"
           style="fill:#ffffff;fill-opacity:1;fill-rule:nonzero;stroke:none"
           d="m 1273.81,4440 c -15,-5 -55,-10 -70,0 0,15 10,50 35,50 20,-5 30,-30 35,-50" />
        <path
           inkscape:connector-curvature="0"
           id="path4154"
           style="fill:#231f20;fill-opacity:1;fill-rule:nonzero;stroke:none"
           d="m 1268.81,4345 0,-15 c -30,25 -75,-10 -110,0 -5,25 25,20 40,30 25,0 50,5 70,-15" />
        <path
           inkscape:connector-curvature="0"
           id="path4156"
           style="fill:#231f20;fill-opacity:1;fill-rule:nonzero;stroke:none"
           d="m 1253.81,4310 c -5,-15 -20,-30 -40,-30 -15,0 -10,25 0,35 10,0 30,5 40,-5" />
        <path
           inkscape:connector-curvature="0"
           id="path4158"
           style="fill:#231f20;fill-opacity:1;fill-rule:nonzero;stroke:none"
           d="m 853.813,4285 c 0,-10 -10,-15 -15,-5 l 5,5 c 5,0 10,0 10,0" />
        <path
           inkscape:connector-curvature="0"
           id="path4160"
           style="fill:#231f20;fill-opacity:1;fill-rule:nonzero;stroke:none"
           d="m 843.813,4245 c 5,-15 -15,-35 -15,-50 -20,-15 -65,-35 -90,-10 -30,-5 -50,-55 -80,-20 -20,50 65,30 90,60 20,10 45,40 65,20 l 30,0" />
        <path
           inkscape:connector-curvature="0"
           id="path4162"
           style="fill:#231f20;fill-opacity:1;fill-rule:nonzero;stroke:none"
           d="m 1623.81,4250 c -15,-20 -40,-35 -60,-40 -5,30 40,25 60,40" />
        <path
           inkscape:connector-curvature="0"
           id="path4164"
           style="fill:#231f20;fill-opacity:1;fill-rule:nonzero;stroke:none"
           d="m 1823.81,4185 c -10,-5 -25,0 -35,-5 -5,5 -5,10 5,15 10,0 30,10 30,-10" />
        <path
           inkscape:connector-curvature="0"
           id="path4166"
           style="fill:#231f20;fill-opacity:1;fill-rule:nonzero;stroke:none"
           d="m 1933.81,4080 c 20,15 35,-5 40,-20 15,-45 35,-95 90,-105 25,-30 35,-60 40,-105 -15,-10 -20,-40 -10,-60 10,-10 15,-30 15,-45 20,-30 -5,-85 20,-110 l 0,-55 c 40,-20 40,-80 35,-130 -25,-85 -10,-225 -15,-330 -15,-20 -15,-60 -30,-85 0,-75 -40,-125 -50,-195 -15,-60 -115,-70 -125,-135 l -80,-40 c -100,-10 -205,-5 -270,60 -60,45 -85,100 -135,160 -25,-15 10,-20 10,-30 40,-20 20,-100 15,-135 -15,-25 -55,-35 -90,-50 15,-50 65,-5 95,-15 25,0 15,35 45,30 20,-25 5,-40 0,-65 -15,-10 -20,-40 -35,-50 0,-20 15,-25 30,-35 10,10 15,25 30,15 5,-35 10,-60 -30,-70 -120,10 -215,-20 -325,-40 -40,5 -80,-30 -110,-15 5,30 40,35 30,75 0,15 15,45 5,50 -35,-35 -35,-110 -95,-120 10,15 15,35 20,50 10,-5 -15,15 -20,5 -20,-25 -30,-45 -54.997,-60 -110,15 -210,60 -325,55 -25,20 5,80 5,130 20,5 0,40 15,50 l -5,15 c 10,15 10,30 20,45 5,35 10,75 -20,90 l -55,10 c 10,20 40,10 60,20 65,80 115,170 195,245 45,-15 110,-5 144.997,-40 20,5 20,25 30,35 -10,20 -40,-5 -54.997,10 -40,65 -115,0 -175,0 -5,-40 -25,-60 -50,-85 -5,-15 -15,-40 -40,-25 -10,15 -10,50 0,70 -40,-10 -25,-95 -85,-75 -25,-30 -25,-85 -55,-105 10,35 25,65 25,110 20,15 55,25 50,65 20,40 -60,35 -75,70 0,15 -15,25 -15,40 -25,30 -30,80 -45,120 -5,25 -30,40 -30,70 5,10 20,20 5,35 -10,5 -20,15 -20,30 -30,-20 -60,10 -80,25 -15,15 20,25 35,30 35,-35 60,20 95,-15 5,-10 25,-5 25,5 15,35 -25,0 -35,20 -30,35 -85,45 -115,80 -40,15 -80,35 -130,35 65,60 145,-60 195,5 5,20 30,30 30,55 -15,10 -60,0 -40,30 60,75 100,160 180,220 15,-15 35,0 50,-5 20,35 -20,40 -10,75 35,5 75,-20 90,-40 15,-10 10,-30 20,-40 20,-15 45,-60 75,-25 15,30 0,45 0,75 -10,5 -10,25 0,30 l 10,15 -20,10 c -10,50 5,75 35,100 30,-5 45,20 75,10 -30,-15 -60,-35 -75,-60 35,15 80,35 119.997,25 l 25,-20 c -25,-30 -59.997,-50 -84.997,-90 l 30,0 c 64.997,35 104.997,100 179.997,95 l 0,-15 c -40,-30 -85,-60 -120,-95 75,10 110,75 170,100 l 0,-25 c 5,0 25,5 25,-10 -10,-10 -40,-15 -40,-30 15,-10 25,5 35,10 5,-15 20,-15 30,-5 l 45,75 c 0,25 0,50 20,55 5,-30 -10,-50 -10,-75 l -5,0 c 10,-30 60,-45 90,-45 -5,-65 -50,-105 -60,-165 -5,-20 -5,-45 -25,-50 -10,0 -20,-5 -25,-10 l 0,-5 c 20,20 50,-30 55,5 l 15,0 c 0,-20 5,-50 -5,-60 -10,-60 5,-80 -15,-135 l -10,15 c 5,30 10,60 -5,70 -5,-20 -20,-30 -40,-35 10,-15 30,-25 40,-45 0,-15 -30,-50 5,-60 -5,-25 -30,-35 -50,-50 25,-20 75,5 75,-35 5,-25 5,-45 10,-65 l 10,-10 c 25,25 65,50 85,85 -15,0 -40,-40 -65,-25 -5,45 -20,70 10,105 10,0 5,10 5,15 l -20,0 c 0,25 25,55 10,85 25,-5 40,-20 55,-40 40,0 35,45 65,55 10,-30 -40,-50 -40,-85 10,-30 55,15 45,-30 20,5 20,35 20,60 l -5,105 c -15,-60 -80,-30 -125,-45 -35,25 -50,55 -45,100 10,0 5,25 20,20 l 5,-20 0,0 c -5,-20 5,-35 5,-65 20,-10 45,5 60,15 25,20 35,55 35,90 30,0 40,-25 50,-50 30,15 15,60 30,85 0,45 15,80 35,105 20,70 70,110 145,130 10,0 20,-5 15,-20 -150,-55 -160,-180 -185,-315 l -10,-5 c 0,-80 20,-185 -35,-235 l 0,-5 c 25,-10 40,50 65,10 20,10 25,0 40,-10 15,0 15,25 35,15 0,-20 5,-50 -5,-65 10,5 30,25 50,30 30,15 75,20 90,45 20,15 5,65 40,55 -10,-15 -10,-40 -10,-50 30,65 60,135 65,220 l 10,5 0,195 c -10,40 -15,75 -30,110 -25,10 -70,0 -70,35 -10,10 -30,20 -25,30 25,15 65,5 80,35 0,25 -15,30 -15,50 45,-25 60,-65 75,-105" />
        <path
           inkscape:connector-curvature="0"
           id="path4168"
           style="fill:#231f20;fill-opacity:1;fill-rule:nonzero;stroke:none"
           d="m 843.813,4145 -15,-20 c 15,-5 40,20 55,5 -20,-45 -75,-65 -130,-70 0,-15 40,-15 35,-45 -25,-5 -45,10 -65,25 l 5,15 c -25,0 -50,-10 -70,-5 15,30 100,15 75,60 -10,15 -25,20 -30,40 40,-25 100,-20 140,-5" />
        <path
           inkscape:connector-curvature="0"
           id="path4170"
           style="fill:#231f20;fill-opacity:1;fill-rule:nonzero;stroke:none"
           d="m 1773.81,4100 c -40,-25 -90,10 -135,20 l -50,10 c 0,15 10,10 15,15 65,5 130,-15 170,-45" />
        <path
           inkscape:connector-curvature="0"
           id="path4172"
           style="fill:#231f20;fill-opacity:1;fill-rule:nonzero;stroke:none"
           d="m 1493.81,4105 c -25,-40 -45,-85 -60,-125 l -10,-5 c 15,50 30,100 70,130" />
        <path
           inkscape:connector-curvature="0"
           id="path4174"
           style="fill:#231f20;fill-opacity:1;fill-rule:nonzero;stroke:none"
           d="m 1623.81,4060 c -5,-10 5,-15 10,-20 -30,-40 -45,-90 -85,-120 -45,-25 -90,-50 -120,-95 -10,0 -15,10 -15,20 15,0 0,20 15,25 25,35 70,60 100,95 -15,20 -45,30 -35,60 15,-20 40,0 60,5 20,15 40,30 45,65 10,-10 25,-15 25,-35" />
        <path
           inkscape:connector-curvature="0"
           id="path4176"
           style="fill:#ffffff;fill-opacity:1;fill-rule:nonzero;stroke:none"
           d="m 1928.81,4030 0,-20 -5,0 c 5,30 -25,25 -15,60 20,-5 0,-35 20,-40" />
        <path
           inkscape:connector-curvature="0"
           id="path4178"
           style="fill:#231f20;fill-opacity:1;fill-rule:nonzero;stroke:none"
           d="m 568.813,4010 c -45,5 -65,-35 -105,-35 -45,-55 -100,-80 -115,-155 0,-20 -30,-40 -5,-50 15,5 25,20 35,15 -25,-65 -95,-85 -120,-150 -25,-15 -30,-45 -45,-70 20,-15 30,-35 25,-65 -35,-15 -70,0 -90,-35 75,20 155,-15 225,-45 45,-30 85,-65 105,-120 -20,-35 -40,-55 -45,-95 -70,-55 -70,-160 -65,-265 -15,0 -5,-20 -10,-25 l 10,-5 -5,-40 0,0 5,-10 c -15,-15 -5,-50 -15,-70 -10,-20 -10,-45 -20,-65 -10,-40 -20,-80 -25,-120 -10,-15 -10,-45 -20,-60 0,-30 -5,-70 5,-95 -5,-45 35,-50 55,-85 30,-5 25,60 65,30 15,-10 20,-30 20,-50 5,-25 30,-40 20,-75 l -95,-85 20,-65 c -45,60 -75,-25 -115,-40 l -30,-20 30,-65 c 155,-80 185,-255 280,-375 110,-190 200,-395 320,-580 20,-10 5,25 20,5 l 5,-20 c -5,0 -10,-5 -10,-10 l 0,-5 c 15,10 30,-5 35,-15 5,-10 25,-35 0,-40 5,-20 15,-10 30,-20 15,-15 25,-50 30,-65 l -20,15 c 0,-25 15,-40 20,-65 l 0,-25 c 15,-5 20,10 29.997,15 25,-15 5,-55 20,-75 60,-90 100,-185 150,-280 l 0,-20 c -45,35 -45,100 -90,140 -5,-20 -15,-25 -20,-45 l -15,10 c -15,-5 0,-35 -15,-35 -39.997,40 -59.997,100 -89.997,150 -30,50 -55,115 -90,160 0,35 -30,45 -35,75 -10,5 -5,25 -10,35 -75,115 -120,255 -200,365 -25,-10 -15,-45 -25,-65 -10,-55 -35,-95 -50,-140 -10,-5 -5,-15 -10,-25 -15,-15 -20,-40 -30,-60 -10,-65 -35,-145 -45,-230 -10,-10 -5,-25 -10,-40 -5,0 -5,0 -5,0 20,-10 15,-30 15,-55 -15,-35 -45,-70 -35,-125 70,10 160,60 235,10 100,0 195,-15 275,-65 55,5 114.997,-15 144.997,-50 0,-40 30,-60 50,-80 35,-105 125,-160 175,-245 25,-30 60,-65 100,-85 10,0 20,5 15,15 -30,80 -65,185 -80,265 30,-55 40,-100 65,-160 15,-45 35,-95 25,-155 -15,15 -35,-5 -55,5 -50,40 -80,85 -130,125 -45,70 -110,140 -185,200 -45,15 -99.997,45 -139.997,70 -25,-15 -60,0 -70,15 l 0,10 c -85,0 -170,0 -240,35 -65,-10 -150,10 -190,-45 -45,-60 -65,-140 -125,-185 -45,-15 -85,-75 -140,-75 -10,10 5,35 20,45 20,0 35,10 35,30 40,25 80,45 105,90 -15,45 10,90 25,125 -15,-5 -5,20 -10,30 -15,10 -20,15 -20,30 -40,15 -70,45 -110,35 -70,-70 -140.0005,-115 -160.0005,-215 -10,10 -25,45 -10,60 15,25 20,35 25,60 l 40,20 c 55.0005,80 145.0005,125 205.0005,195 45,10 105,-35 120,25 l 0,5 c -50,-25 -105,5 -155,15 -10,20 -15,30 -10,50 l 5,5 5,400 c 10,40 15,90 15,135 5,20 5,45 15,60 15,95 65,165 95,245 l 15,0 c -5,-30 -35,-40 -20,-80 30,-15 35,-50 60,-70 5,-10 25,0 20,15 -5,20 -20,40 -10,60 l 10,0 c -20,25 40,25 10,60 -65,155 -160,275 -215,425 -35,10 -50,100 -105,45 -25,-20 -60.0005,-50 -95.0005,-30 -15,35 -70,60 -40,120 25,15 35,45 30,85 -40,55 -15,90 0,155 -10,25 -45,30 -30,75 15,15 10,55 50,40 l 5,10 c -5,-25 10,-30 15,-45 35.0005,15 30.0005,55 35.0005,90 l 10,10 c 15,-10 5,-30 10,-45 -15,-65 -55.0005,-100 -80.0005,-150 -15,-40 20,-65 20,-100 15,-20 30.0005,-30 60.0005,-25 40,15 50,55 95,70 25,5 65,-15 70,25 5,35 -30,30 -25,60 -15,30 -30,60 -55,80 -10,15 -5,30 -15,50 -10,-5 -5,15 -5,20 15,10 25,15 20,35 -5,15 -20,30 -5,45 10,-5 15,-5 25,5 -15,0 0,25 -15,25 0,20 0,35 20,40 l -5,60 20,0 c 0,25 -10,35 -5,60 15,0 25,5 20,25 0,10 -15,5 -10,15 l 10,5 25,-40 c 5,40 -15,60 -15,105 -10,0 -5,15 -5,25 l 20,0 0,45 c 5,-5 20,-5 20,5 5,25 -15,30 -15,45 10,10 25,-15 30,5 -5,25 -35,45 -10,60 -20,30 -10,60 -10,100 10,0 15,5 20,10 -10,5 -10,20 -10,30 20,10 20,-15 35,-10 5,30 -15,35 -10,65 l 25,10 -5,15 c -60,5 -105,-35 -155,-60 l 0,-35 -5,0 c 5,-5 10,-10 0,-15 15,-5 5,-25 5,-40 -10,-10 -5,-35 -20,-45 l -10,15 -20,-10 c -10,35 40,70 25,110 -20,55 30,85 5,135 -25,20 -60,30 -55,70 25,30 25,85 50,115 20,85 125,105 125,200 10,100 65,160 135,210 45,10 75,45 120,35 l 0,-10" />
        <path
           inkscape:connector-curvature="0"
           id="path4180"
           style="fill:#ffffff;fill-opacity:1;fill-rule:nonzero;stroke:none"
           d="m 1943.81,3880 5,0 5,-95 10,0 c 5,-30 10,-75 -20,-85 -5,-25 -15,-40 -20,-65 5,40 15,90 10,140 l 5,0 c 10,85 -10,150 -10,230 10,-45 15,-70 15,-125" />
        <path
           inkscape:connector-curvature="0"
           id="path4182"
           style="fill:#ffffff;fill-opacity:1;fill-rule:nonzero;stroke:none"
           d="m 1008.81,3735 c -39.997,-40 -124.997,-15 -174.997,-25 10,10 25,5 20,25 -10,15 -30,0 -45,5 55,45 135,-5 199.997,-5" />
        <path
           inkscape:connector-curvature="0"
           id="path4184"
           style="fill:#ffffff;fill-opacity:1;fill-rule:nonzero;stroke:none"
           d="m 1328.81,3675 0,10 0,-10" />
        <path
           inkscape:connector-curvature="0"
           id="path4186"
           style="fill:#ffffff;fill-opacity:1;fill-rule:nonzero;stroke:none"
           d="m 998.813,3640 c 0,-5 4.997,0 4.997,-5 -49.997,-45 -144.997,-10 -214.997,-30 70,10 130,60 205,50 l 5,-15" />
        <path
           inkscape:connector-curvature="0"
           id="path4188"
           style="fill:#ffffff;fill-opacity:1;fill-rule:nonzero;stroke:none"
           d="m 2063.81,3530 c 5,-20 20,-65 -10,-70 -40,-5 -110,15 -130,-15 -45,5 5,40 -25,60 15,45 40,95 100,115 35,-20 55,-50 65,-90" />
        <path
           inkscape:connector-curvature="0"
           id="path4190"
           style="fill:#ffffff;fill-opacity:1;fill-rule:nonzero;stroke:none"
           d="m 488.813,3570 -5,0 5,10 c 5,0 5,-10 0,-10" />
        <path
           inkscape:connector-curvature="0"
           id="path4192"
           style="fill:#ffffff;fill-opacity:1;fill-rule:nonzero;stroke:none"
           d="m 753.813,3550 45,15 25,0 -70,-15 z" />
        <path
           inkscape:connector-curvature="0"
           id="path4194"
           style="fill:#231f20;fill-opacity:1;fill-rule:nonzero;stroke:none"
           d="m 333.813,3550 c 5,-20 -5,-25 -10,-35 25,0 20,-35 20,-40 -15,-10 -50,-10 -55,10 0,25 -40,30 -35,60 5,25 65,25 80,5" />
        <path
           inkscape:connector-curvature="0"
           id="path4196"
           style="fill:#231f20;fill-opacity:1;fill-rule:nonzero;stroke:none"
           d="m 433.813,3520 c 0,-15 10,-25 -5,-30 -15,0 -15,25 -35,10 5,-15 -15,-25 -25,-10 -15,10 -5,30 -5,45 20,25 50,0 70,-15" />
        <path
           inkscape:connector-curvature="0"
           id="path4198"
           style="fill:#ffffff;fill-opacity:1;fill-rule:nonzero;stroke:none"
           d="m 1238.81,3370 c -40,-30 -100,-60 -145,-85 35,40 90,55 140,85 l 5,0" />
        <path
           inkscape:connector-curvature="0"
           id="path4200"
           style="fill:#ffffff;fill-opacity:1;fill-rule:nonzero;stroke:none"
           d="m 1393.81,3335 c -5,0 0,-15 -10,-15 l -10,25 c 5,-5 20,-5 20,-10" />
        <path
           inkscape:connector-curvature="0"
           id="path4202"
           style="fill:#ffffff;fill-opacity:1;fill-rule:nonzero;stroke:none"
           d="m 668.813,3240 c 25,-25 50,-60 95,-70 20,5 30,25 55,25 65,-15 125,35 180,45 -50,5 -15,-70 -80,-55 -65,-10 -130,-50 -200,-30 -30,25 -60,60 -110,55 -20,-30 15,-45 10,-70 -25,0 -15,30 -30,45 -20,35 -35,70 -40,120 50,75 85,-45 120,-65" />
        <path
           inkscape:connector-curvature="0"
           id="path4204"
           style="fill:#ffffff;fill-opacity:1;fill-rule:nonzero;stroke:none"
           d="m 1233.81,3275 70,30 0,-5 -70,-25 z" />
        <path
           inkscape:connector-curvature="0"
           id="path4206"
           style="fill:#ffffff;fill-opacity:1;fill-rule:nonzero;stroke:none"
           d="m 1293.81,3185 5,-45 c -15,20 -55,45 -90,35 l -25,-20 c 10,20 20,55 55,50 25,5 45,-5 55,-20" />
        <path
           inkscape:connector-curvature="0"
           id="path4208"
           style="fill:#ffffff;fill-opacity:1;fill-rule:nonzero;stroke:none"
           d="m 1418.81,3185 -10,20 10,-10 0,-10 z" />
        <path
           inkscape:connector-curvature="0"
           id="path4210"
           style="fill:#231f20;fill-opacity:1;fill-rule:nonzero;stroke:none"
           d="m 143.813,3005 -10,-10 0,-375 c -20,5 -5,35 -20,45 0,175 -30.0005,330 45,465 -5,-30 -20,-75 -15,-125" />
        <path
           inkscape:connector-curvature="0"
           id="path4212"
           style="fill:#ffffff;fill-opacity:1;fill-rule:nonzero;stroke:none"
           d="m 1198.81,3030 25,0 c -10,-10 -35,-25 -55,-15 -30,20 -10,70 -5,100 10,-25 0,-75 35,-85" />
        <path
           inkscape:connector-curvature="0"
           id="path4214"
           style="fill:#ffffff;fill-opacity:1;fill-rule:nonzero;stroke:none"
           d="m 1113.81,3000 c -15,-5 -25,10 -20,25 -5,30 0,15 0,50 15,-20 25,-50 20,-75" />
        <path
           inkscape:connector-curvature="0"
           id="path4216"
           style="fill:#ffffff;fill-opacity:1;fill-rule:nonzero;stroke:none"
           d="m 1378.81,3030 -20,10 c 5,-5 10,5 20,0 l 0,-10" />
        <path
           inkscape:connector-curvature="0"
           id="path4218"
           style="fill:#ffffff;fill-opacity:1;fill-rule:nonzero;stroke:none"
           d="m 1158.81,2955 c -10,0 -25,5 -20,20 10,-5 30,0 20,-20" />
        <path
           inkscape:connector-curvature="0"
           id="path4220"
           style="fill:#ffffff;fill-opacity:1;fill-rule:nonzero;stroke:none"
           d="m 1228.81,2965 c -25,0 -15,-45 -40,-30 l -20,35 c 15,-5 45,-10 60,-5" />
        <path
           inkscape:connector-curvature="0"
           id="path4222"
           style="fill:#ffffff;fill-opacity:1;fill-rule:nonzero;stroke:none"
           d="m 948.813,2930 c -20,-70 -50,-120 -95,-165 -5,0 -10,25 0,20 -25,25 10,85 -55,60 l 0,10 c 10,25 35,25 50,45 l 5,-15 c 40,5 55,40 95,45" />
        <path
           inkscape:connector-curvature="0"
           id="path4224"
           style="fill:#ffffff;fill-opacity:1;fill-rule:nonzero;stroke:none"
           d="m 1183.81,2920 c 5,-10 0,-15 -10,-15 l 0,15 10,0" />
        <path
           inkscape:connector-curvature="0"
           id="path4226"
           style="fill:#231f20;fill-opacity:1;fill-rule:nonzero;stroke:none"
           d="m 543.813,2710 c -10,-30 -20,-60 -20,-95 25,10 0,55 25,60 5,15 10,45 25,55 10,-40 -5,-75 -15,-110 -5,-25 -10,-50 -25,-70 l -15,0 c -10,20 20,25 5,50 l -30,-30 0,50 5,0 c 5,20 0,55 15,80 5,40 5,85 35,110 10,15 10,30 25,40 -5,-45 -25,-90 -30,-140" />
        <path
           inkscape:connector-curvature="0"
           id="path4228"
           style="fill:#231f20;fill-opacity:1;fill-rule:nonzero;stroke:none"
           d="m 613.813,2555 c -25,-30 -30,-90 -15,-130 105,-5 210,-25 305,-60 154.997,-40 324.997,-10 469.997,45 25,-10 55,-25 75,-40 5,10 -20,15 -10,40 25,15 50,-25 80,0 20,-5 50,0 55,-25 -15,-20 -60,-35 -30,-70 30,-70 30,-160 50,-240 0,-10 10,-30 -5,-30 0,-30 -5,-55 5,-75 -5,-85 5,-160 40,-215 5,-15 0,-30 5,-40 -5,0 10,-10 -5,-25 l 0,-65 c -15,-15 -10,-35 -20,-45 -10,-30 15,-40 10,-65 l 10,0 c 0,-50 15,-90 15,-140 10,-80 25,-185 25,-255 15,-15 -10,-30 0,-55 0,-50 25,-80 20,-135 15,-10 5,-45 15,-60 0,-50 70,-65 105,-95 15,-25 60,-30 80,-55 40,-30 75,-60 95,-105 20,-15 15,-60 10,-85 -30,-10 -10,-60 -45,-70 -65,-20 -130,15 -170,45 15,20 35,35 55,50 30,0 35,-30 35,-50 15,0 35,-35 60,-10 20,15 0,35 -10,45 -65,15 -120,45 -160,90 -35,55 -85,90 -110,155 -15,10 -20,50 -55,20 -20,-60 55,-55 55,-105 5,-30 35,0 40,-35 -5,-60 50,-90 60,-135 l -5,-10 c -60,30 -125,50 -195,55 -50,-15 -115,15 -165,-5 -40,-20 -85,-50 -120,-80 -10,10 -30,15 -20,35 10,0 5,15 5,25 -10,0 -5,15 -5,25 l 5,5 c -5,15 -15,-5 -20,-5 5,-20 -30,-15 -40,-10 -145,270 -294.997,530 -429.997,810 l 0,5 c 45,-25 35,-105 85,-135 130,-205 229.997,-410 344.997,-620 l 10,-5 c 50,95 185,55 270,95 15,20 5,50 30,50 20,-15 10,-55 40,-65 l 20,5 c 5,65 -90,80 -75,155 0,100 -40,170 -70,255 -30,60 -75,110 -80,190 l -5,5 c -10,90 -5,190 10,270 20,20 35,-20 55,0 55,25 50,85 50,140 -40,115 -115,175 -185,270 -35,-65 15,-105 30,-155 30,-80 105,-130 115,-230 -110,20 -100,155 -155,225 -60,120 -145,215 -190,355 -10,30 -25,50 -40,65 -64.997,-115 -109.997,-240 -179.997,-345 -25,-55 -25,-125 -55,-170 -10,-75 -50,-140 -115,-170 l -20,5 c -70,140 -150,265 -220,410 l -5,30 c 15,-10 20,-25 30,-40 10,-5 10,-30 30,-20 l 5,140 -5,290 c -20,10 -30,30 -20,50 l 75,5 c 50,100 15,205 75,295 -5,20 10,20 15,30 15,-60 -10,-140 -20,-205" />
        <path
           inkscape:connector-curvature="0"
           id="path4230"
           style="fill:#ffffff;fill-opacity:1;fill-rule:nonzero;stroke:none"
           d="m 703.813,2660 c 0,15 10,30 20,40 5,-15 -10,-35 -20,-40" />
        <path
           inkscape:connector-curvature="0"
           id="path4232"
           style="fill:#ffffff;fill-opacity:1;fill-rule:nonzero;stroke:none"
           d="m 1393.81,2650 c -65,-10 -120,-50 -160,-95 0,-20 30,-5 35,-10 0,-45 -85,-15 -80,-65 -10,-5 -10,-20 -25,-20 l 85,125 c 35,25 75,60 125,80 15,0 15,-15 20,-15" />
        <path
           inkscape:connector-curvature="0"
           id="path4234"
           style="fill:#ffffff;fill-opacity:1;fill-rule:nonzero;stroke:none"
           d="m 993.813,2620 c 9.997,-20 -15,-20 -10,-40 29.997,-10 34.997,15 49.997,25 -10,-10 -30,-45 -5,-60 l 30,10 c -15,-30 -20,-65 -59.997,-65 0,20 34.997,25 14.997,45 -34.997,0 -29.997,-45 -64.997,-50 0,20 50,65 5,75 25,10 10,45 20,60 l 20,0" />
        <path
           inkscape:connector-curvature="0"
           id="path4236"
           style="fill:#ffffff;fill-opacity:1;fill-rule:nonzero;stroke:none"
           d="m 1138.81,2550 -5,10 5,-5 0,-5 z" />
        <path
           inkscape:connector-curvature="0"
           id="path4238"
           style="fill:#ffffff;fill-opacity:1;fill-rule:nonzero;stroke:none"
           d="m 1513.81,2530 0,-10 -25,10 c 15,10 0,20 -10,25 l -15,0 c 20,15 40,-10 50,-25" />
        <path
           inkscape:connector-curvature="0"
           id="path4240"
           style="fill:#ffffff;fill-opacity:1;fill-rule:nonzero;stroke:none"
           d="m 883.813,2545 c 5,-20 5,-35 20,-45 -20,0 -35,20 -55,20 10,10 15,25 35,25" />
        <path
           inkscape:connector-curvature="0"
           id="path4242"
           style="fill:#ffffff;fill-opacity:1;fill-rule:nonzero;stroke:none"
           d="m 683.813,2510 -10,0 5,15 10,0 -5,-15" />
        <path
           inkscape:connector-curvature="0"
           id="path4244"
           style="fill:#ffffff;fill-opacity:1;fill-rule:nonzero;stroke:none"
           d="m 318.813,2280 c 10,30 55,40 75,60 l -5,-15 -70,-45" />
        <path
           inkscape:connector-curvature="0"
           id="path4246"
           style="fill:#ffffff;fill-opacity:1;fill-rule:nonzero;stroke:none"
           d="m 623.813,2245 c -10,-5 -10,-30 -5,-35 l 35,0 -25,-50 20,-10 c 0,-20 -40,-30 -20,-60 30,0 45,35 65,50 10,-25 -30,-30 -30,-50 -20,-20 -45,-45 -35,-80 35,-30 -10,-50 -15,-70 0,-35 5,-45 -5,-70 10,-35 -45,-55 0,-75 l 20,-5 c -5,-15 -25,-25 -25,-45 10,-5 25,0 35,10 0,-15 -10,-35 -25,-40 -30,10 -30,35 -45,50 -25,65 -85,120 -45,200 15,20 0,45 -5,60 0,120 -5,185 5,290 35,-20 85,-30 100,-70" />
        <path
           inkscape:connector-curvature="0"
           id="path4248"
           style="fill:#ffffff;fill-opacity:1;fill-rule:nonzero;stroke:none"
           d="m 48.8125,2085 c -25,-5 -20,25 -30,35 5,10 10,25 25,25 l 10,0 0,-30 c 20,-5 20,20 20,35 70.0005,-10 80.0005,60 140.0005,60 30,15 40,35 70,40 L 48.8125,2085" />
        <path
           inkscape:connector-curvature="0"
           id="path4250"
           style="fill:#ffffff;fill-opacity:1;fill-rule:nonzero;stroke:none"
           d="m 238.813,2160 c -30,-5 15,-70 -40,-35 -10,20 20,30 40,35" />
        <path
           inkscape:connector-curvature="0"
           id="path4252"
           style="fill:#231f20;fill-opacity:1;fill-rule:nonzero;stroke:none"
           d="m 388.813,2050 c 10,-15 10,-40 0,-45 -15,5 -5,30 -10,45 l 10,0" />
        <path
           inkscape:connector-curvature="0"
           id="path4254"
           style="fill:#231f20;fill-opacity:1;fill-rule:nonzero;stroke:none"
           d="m 523.813,1725 c 20,-45 50,-85 65,-140 -25,20 -35,60 -50,85 -10,15 -15,40 -25,55 l 10,0" />
        <path
           inkscape:connector-curvature="0"
           id="path4256"
           style="fill:#ffffff;fill-opacity:1;fill-rule:nonzero;stroke:none"
           d="m 1528.81,1655 c -15,-10 -10,5 -20,5 -5,20 -15,30 -20,45 25,-5 25,-35 40,-50" />
        <path
           inkscape:connector-curvature="0"
           id="path4258"
           style="fill:#ffffff;fill-opacity:1;fill-rule:nonzero;stroke:none"
           d="m 1463.81,1635 5,0 -5,0" />
        <path
           inkscape:connector-curvature="0"
           id="path4260"
           style="fill:#ffffff;fill-opacity:1;fill-rule:nonzero;stroke:none"
           d="m 1473.81,1420 c -20,10 -65,10 -65,45 -5,5 -15,15 -25,5 -20,-20 15,-40 -5,-55 -5,-40 110,-80 20,-110 -40,30 -25,100 -45,150 5,20 -5,45 10,60 20,-50 130,-20 110,-95" />
        <path
           inkscape:connector-curvature="0"
           id="path4262"
           style="fill:#231f20;fill-opacity:1;fill-rule:nonzero;stroke:none"
           d="m 648.813,1475 c -10,5 -20,15 -15,35 5,-10 25,-15 15,-35" />
        <path
           inkscape:connector-curvature="0"
           id="path4264"
           style="fill:#231f20;fill-opacity:1;fill-rule:nonzero;stroke:none"
           d="m 713.813,1485 c -15,-15 -10,10 -20,15 15,0 15,-10 20,-15" />
        <path
           inkscape:connector-curvature="0"
           id="path4266"
           style="fill:#231f20;fill-opacity:1;fill-rule:nonzero;stroke:none"
           d="m 688.813,1395 c -15,10 -25,35 -30,55 20,-10 30,-30 30,-55" />
        <path
           inkscape:connector-curvature="0"
           id="path4268"
           style="fill:#ffffff;fill-opacity:1;fill-rule:nonzero;stroke:none"
           d="m 388.813,1360 c -5,-5 -15,-10 -10,-20 l 25,-10 c -20,-15 -40,-40 -65,-55 -40,5 -30,45 -25,75 15,35 20,65 40,100 10,-35 55,-45 35,-90" />
        <path
           inkscape:connector-curvature="0"
           id="path4270"
           style="fill:#231f20;fill-opacity:1;fill-rule:nonzero;stroke:none"
           d="m 738.813,1305 c -15,15 -30,40 -35,60 20,-10 35,-35 35,-60" />
        <path
           inkscape:connector-curvature="0"
           id="path4272"
           style="fill:#231f20;fill-opacity:1;fill-rule:nonzero;stroke:none"
           d="m 773.813,1235 15,-10 c -20,5 -25,30 -35,45 0,10 -20,10 -15,25 25,-5 30,-35 35,-60" />
        <path
           inkscape:connector-curvature="0"
           id="path4274"
           style="fill:#ffffff;fill-opacity:1;fill-rule:nonzero;stroke:none"
           d="m 413.813,1280 c -10,-15 -30,-50 -50,-40 -5,30 35,40 50,40" />
        <path
           inkscape:connector-curvature="0"
           id="path4276"
           style="fill:#231f20;fill-opacity:1;fill-rule:nonzero;stroke:none"
           d="m 823.813,1155 c 5,-20 30,-35 30,-60 -35,10 -20,55 -45,70 -10,10 -10,25 -20,35 l 0,15 c 20,-15 20,-40 35,-60" />
        <path
           inkscape:connector-curvature="0"
           id="path4278"
           style="fill:#ffffff;fill-opacity:1;fill-rule:nonzero;stroke:none"
           d="m 328.813,1185 c 5,-15 -10,-20 -20,-25 l -10,5 5,40 c 20,10 15,-20 25,-20" />
        <path
           inkscape:connector-curvature="0"
           id="path4280"
           style="fill:#ffffff;fill-opacity:1;fill-rule:nonzero;stroke:none"
           d="m 323.813,1125 c 5,-10 -15,-10 -20,-20 -20,20 5,25 20,20" />
        <path
           inkscape:connector-curvature="0"
           id="path4282"
           style="fill:#231f20;fill-opacity:1;fill-rule:nonzero;stroke:none"
           d="m 853.813,1085 5,0 -5,0" />
        <path
           inkscape:connector-curvature="0"
           id="path4284"
           style="fill:#ffffff;fill-opacity:1;fill-rule:nonzero;stroke:none"
           d="m 313.813,1065 c -5,10 15,10 20,20 5,-10 -15,-10 -20,-20" />
        <path
           inkscape:connector-curvature="0"
           id="path4286"
           style="fill:#ffffff;fill-opacity:1;fill-rule:nonzero;stroke:none"
           d="m 368.813,1010 c -20,-20 -45,-45 -75,-50 10,20 45,40 75,50" />
        <path
           inkscape:connector-curvature="0"
           id="path4288"
           style="fill:#ffffff;fill-opacity:1;fill-rule:nonzero;stroke:none"
           d="m 1548.81,875 c -10,0 -15,-15 -30,-10 5,25 -15,40 0,60 25,0 15,-30 30,-50" />
        <path
           inkscape:connector-curvature="0"
           id="path4290"
           style="fill:#ffffff;fill-opacity:1;fill-rule:nonzero;stroke:none"
           d="m 308.813,840 c -5,-5 -10,-15 -20,-10 0,10 15,10 20,10" />
        <path
           inkscape:connector-curvature="0"
           id="path4292"
           style="fill:#ffffff;fill-opacity:1;fill-rule:nonzero;stroke:none"
           d="m 328.813,805 c -20,-5 -20,-25 -45,-25 5,20 30,25 45,25" />
        <path
           inkscape:connector-curvature="0"
           id="path4294"
           style="fill:#ffffff;fill-opacity:1;fill-rule:nonzero;stroke:none"
           d="m 998.813,605 c -15,20 -40,40 -20,70 l 5,10 c 10,-20 15,-50 15,-80" />
        <path
           inkscape:connector-curvature="0"
           id="path4296"
           style="fill:#231f20;fill-opacity:1;fill-rule:nonzero;stroke:none"
           d="m 1298.81,380 -5,10 5,-5 0,-5 z" />
        <path
           inkscape:connector-curvature="0"
           id="path4298"
           style="fill:#231f20;fill-opacity:1;fill-rule:nonzero;stroke:none"
           d="m 133.813,340 c -5,-20 5,-60 -15,-70 -20.0005,0 -45.0005,20 -30.0005,40 15.0005,10 25.0005,30 45.0005,30" />
        <path
           inkscape:connector-curvature="0"
           id="path4300"
           style="fill:#231f20;fill-opacity:1;fill-rule:nonzero;stroke:none"
           d="m 193.813,325 c -10,-35 -30,-70 -60,-75 -5,45 25,65 50,85 5,-5 10,-5 10,-10" />
        <path
           inkscape:connector-curvature="0"
           id="path4302"
           style="fill:#231f20;fill-opacity:1;fill-rule:nonzero;stroke:none"
           d="m 68.8125,265 c 35.0005,-25 65.0005,-60 65.0005,-110 -15,-5 -35.0005,-5 -50.0005,0 -10,50 -70,75 -40,145 25,10 20,-20 25,-35" />
      </g>
    </g>
  </g>
</svg>
